<svg width="16" height="16" viewBox="0 0 16 16" fill="none" xmlns="http://www.w3.org/2000/svg">
<path d="M6.46374 8.90799C6.50774 9.16799 6.58774 9.39999 6.70374 9.60399C6.81974 9.80799 6.97974 9.97199 7.17574 10.096C7.36374 10.212 7.59974 10.276 7.89174 10.28C8.08374 10.276 8.25974 10.244 8.41174 10.176C8.57574 10.104 8.71174 10.008 8.82774 9.88799C8.94374 9.76799 9.03174 9.62399 9.09574 9.46399C9.15974 9.30399 9.19574 9.13199 9.20374 8.95199H10.6357C10.6237 9.32799 10.5477 9.67199 10.4157 9.98399C10.2837 10.296 10.0917 10.564 9.85174 10.792C9.61174 11.02 9.32374 11.192 8.98774 11.316C8.65174 11.44 8.27974 11.504 7.87174 11.504C7.35174 11.504 6.89974 11.416 6.51574 11.236C6.13174 11.056 5.81174 10.812 5.55574 10.5C5.29974 10.188 5.10774 9.82799 4.98374 9.41599C4.85974 9.00399 4.79974 8.56799 4.79974 8.10799V7.88799C4.79974 7.42399 4.86374 6.98799 4.98774 6.57599C5.11174 6.16399 5.30374 5.80399 5.55974 5.49599C5.81574 5.18799 6.13574 4.94399 6.52374 4.76399C6.91174 4.58399 7.36374 4.49599 7.88374 4.49599C8.25974 4.49599 8.61174 4.55599 8.93974 4.67999C9.26774 4.80399 9.55574 4.97199 9.80374 5.18799C10.0517 5.40399 10.2517 5.65199 10.3957 5.93999C10.5397 6.22799 10.6237 6.53199 10.6357 6.85999H9.20374C9.19574 6.69199 9.15574 6.53999 9.08374 6.39599C9.01174 6.25199 8.91574 6.13199 8.79574 6.03199C8.67574 5.93199 8.53574 5.85199 8.37574 5.79599C8.22374 5.74399 8.06374 5.71599 7.89174 5.71599C7.60374 5.72399 7.36774 5.78399 7.17574 5.90399C6.97574 6.03199 6.81574 6.19599 6.69974 6.39999C6.58374 6.60399 6.50374 6.83599 6.45974 7.09999C6.41574 7.36399 6.39974 7.61999 6.39974 7.88799V8.10799C6.39974 8.37999 6.41974 8.64799 6.46374 8.90799Z" fill="#8F91D0"/>
<path d="M8 16C3.58 16 0 12.42 0 8C0 3.58 3.58 0 8 0C12.42 0 16 3.58 16 8C16 12.42 12.42 16 8 16ZM8 1.6C4.472 1.6 1.6 4.472 1.6 8C1.6 11.528 4.472 14.4 8 14.4C11.528 14.4 14.4 11.528 14.4 8C14.4 4.472 11.528 1.6 8 1.6Z" fill="#8F91D0"/>
</svg>
