<svg width="30" height="24" viewBox="0 0 30 24" fill="none" xmlns="http://www.w3.org/2000/svg">
<path d="M9.77377 23.2628C20.3875 23.2628 26.1917 14.4696 26.1917 6.84488C26.1917 6.59514 26.1866 6.34643 26.1754 6.0991C27.302 5.28452 28.2812 4.26803 29.0538 3.11101C28.0199 3.57075 26.9071 3.87983 25.7401 4.01966C26.9313 3.30502 27.846 2.175 28.2774 0.827925C27.1625 1.48891 25.9277 1.96912 24.6133 2.22849C23.5604 1.1069 22.0611 0.405502 20.4011 0.405502C17.2147 0.405502 14.6304 2.98958 14.6304 6.17495C14.6304 6.62799 14.6812 7.0683 14.7801 7.49072C9.98429 7.24941 5.73149 4.95343 2.8858 1.4619C2.39045 2.31449 2.10459 3.30519 2.10459 4.36228C2.10459 6.36397 3.12333 8.13158 4.67234 9.16528C3.72567 9.13621 2.83644 8.87632 2.05901 8.44375C2.05815 8.46801 2.05815 8.49157 2.05815 8.51737C2.05815 11.312 4.04713 13.6453 6.6878 14.174C6.20277 14.3059 5.69245 14.3769 5.16614 14.3769C4.79497 14.3769 4.43309 14.3405 4.08153 14.2729C4.81613 16.5656 6.94648 18.234 9.47208 18.2807C7.49704 19.8287 5.00911 20.7508 2.30514 20.7508C1.84006 20.7508 1.38031 20.7241 0.92865 20.6708C3.48246 22.3077 6.51494 23.263 9.77394 23.263" fill="#ACABBF"/>
</svg>
